<?xml version="1.0" encoding="UTF-8" standalone="no"?>
<svg
   xmlns:shaper="http://www.shapertools.com/namespaces/shaper"
   xmlns:dc="http://purl.org/dc/elements/1.1/"
   xmlns:cc="http://creativecommons.org/ns#"
   xmlns:rdf="http://www.w3.org/1999/02/22-rdf-syntax-ns#"
   xmlns:svg="http://www.w3.org/2000/svg"
   xmlns="http://www.w3.org/2000/svg"
   xmlns:sodipodi="http://sodipodi.sourceforge.net/DTD/sodipodi-0.dtd"
   xmlns:inkscape="http://www.inkscape.org/namespaces/inkscape"
   version="1.1"
   id="Layer_1"
   shaper:fusionaddin="version:1.5.0"
   x="0px"
   y="0px"
   viewBox="0 0 529.13387 498.94698"
   xml:space="preserve"
   sodipodi:docname="bottom-plate-2dut.svg"
   width="140mm"
   height="132.01306mm"
   inkscape:version="1.0.2-2 (e86c870879, 2021-01-15)"><metadata
   id="metadata340"><rdf:RDF><cc:Work
       rdf:about=""><dc:format>image/svg+xml</dc:format><dc:type
         rdf:resource="http://purl.org/dc/dcmitype/StillImage" /><dc:title></dc:title></cc:Work></rdf:RDF></metadata><defs
   id="defs338" /><sodipodi:namedview
   pagecolor="#ffffff"
   bordercolor="#666666"
   borderopacity="1"
   objecttolerance="10"
   gridtolerance="10"
   guidetolerance="10"
   inkscape:pageopacity="0"
   inkscape:pageshadow="2"
   inkscape:window-width="1920"
   inkscape:window-height="1137"
   id="namedview336"
   showgrid="false"
   units="mm"
   inkscape:zoom="1.8329598"
   inkscape:cx="91.414558"
   inkscape:cy="291.38194"
   inkscape:window-x="-8"
   inkscape:window-y="-8"
   inkscape:window-maximized="1"
   inkscape:current-layer="Layer_1"
   fit-margin-top="0"
   fit-margin-left="0"
   fit-margin-right="0"
   fit-margin-bottom="0" />
<style
   type="text/css"
   id="style279">
	.st0{fill:none;stroke:#000000;stroke-miterlimit:10;}
	.st1{fill:none;stroke:#000000;}
</style>
<path
   vector-effect="non-scaling-stroke"
   shaper:cutDepth="0.003"
   shaper:pathType="exterior"
   class="st0"
   d="M 520.889,0.66491002 H 8.2448622 c -4.2554118,0 -7.57995218,3.32454038 -7.57995218,7.57995218 V 490.70217 c 0,4.12243 3.32454038,7.57995 7.57995218,7.57995 H 520.889 c 4.12243,0 7.57995,-3.32454 7.57995,-7.57995 V 8.2448622 c 0,-4.2554118 -3.45752,-7.57995218 -7.57995,-7.57995218 z"
   id="path281"
   style="stroke-width:1.32982" />
<path
   vector-effect="non-scaling-stroke"
   shaper:cutDepth="0.003"
   shaper:pathType="interior"
   class="st1"
   d="m 102.39585,202.39802 v 11.30344 H 87.368925 v -11.30344 z"
   id="path283"
   style="stroke-width:1.32982" />
<path
   vector-effect="non-scaling-stroke"
   shaper:cutDepth="0.003"
   shaper:pathType="interior"
   class="st1"
   d="m 466.23355,207.98325 c 0,3.05858 2.52665,5.71821 5.71821,5.71821 3.05858,0 5.71821,-2.52665 5.71821,-5.71821 v 0 c 0,-3.05858 -2.52665,-5.71821 -5.71821,-5.71821 -3.19156,0.13298 -5.71821,2.65963 -5.71821,5.71821 z"
   id="path285"
   style="stroke-width:1.32982" />
<path
   vector-effect="non-scaling-stroke"
   shaper:cutDepth="0.003"
   shaper:pathType="interior"
   class="st1"
   d="m 441.76494,213.70146 h -15.02693 v -11.30344 h 15.02693 z"
   id="path287"
   style="stroke-width:1.32982" />
<path
   vector-effect="non-scaling-stroke"
   shaper:cutDepth="0.003"
   shaper:pathType="interior"
   class="st1"
   d="m 275.80388,213.70146 v -11.30344 h 15.02692 v 11.30344 z"
   id="path289"
   style="stroke-width:1.32982" />
<path
   vector-effect="non-scaling-stroke"
   shaper:cutDepth="0.003"
   shaper:pathType="interior"
   class="st1"
   d="m 302.26722,240.03182 c 0,3.05858 2.52665,5.71821 5.71821,5.71821 3.05857,0 5.71821,-2.52665 5.71821,-5.71821 v 0 c 0,-3.05858 -2.52665,-5.71821 -5.71821,-5.71821 -3.19156,0 -5.71821,2.65963 -5.71821,5.71821 z"
   id="path291"
   style="stroke-width:1.32982" />
<path
   vector-effect="non-scaling-stroke"
   shaper:cutDepth="0.003"
   shaper:pathType="interior"
   class="st1"
   d="m 219.28669,485.11694 c 0,3.05858 2.52665,5.71821 5.71821,5.71821 3.19156,0 5.71821,-2.52665 5.71821,-5.71821 0,-3.19156 -2.52665,-5.71821 -5.71821,-5.71821 -3.19156,0 -5.71821,2.52665 -5.71821,5.71821 z"
   id="path293"
   style="stroke-width:1.32982" />
<path
   vector-effect="non-scaling-stroke"
   shaper:cutDepth="0.003"
   shaper:pathType="interior"
   class="st1"
   d="m 30.851737,485.11694 c 0,3.05858 2.526651,5.71821 5.71821,5.71821 3.191559,0 5.71821,-2.52665 5.71821,-5.71821 0,-3.19156 -2.526651,-5.71821 -5.71821,-5.71821 -3.191559,0 -5.71821,2.52665 -5.71821,5.71821 z"
   id="path295"
   style="stroke-width:1.32982" />
<path
   vector-effect="non-scaling-stroke"
   shaper:cutDepth="0.003"
   shaper:pathType="interior"
   class="st1"
   d="m 302.26722,485.11694 c 0,3.05858 2.52665,5.71821 5.71821,5.71821 3.05857,0 5.71821,-2.52665 5.71821,-5.71821 0,-3.19156 -2.52665,-5.71821 -5.71821,-5.71821 -3.19156,0 -5.71821,2.52665 -5.71821,5.71821 z"
   id="path297"
   style="stroke-width:1.32982" />
<path
   vector-effect="non-scaling-stroke"
   shaper:cutDepth="0.003"
   shaper:pathType="interior"
   class="st1"
   d="m 227.79751,454.93012 c 0,2.65963 2.12771,4.65435 4.65436,4.65435 2.52665,0 4.65436,-2.1277 4.65436,-4.65435 0,-2.52666 -2.12771,-4.65436 -4.65436,-4.65436 -2.52665,0 -4.65436,1.99472 -4.65436,4.65436 z"
   id="path299"
   style="stroke-width:1.32982" />
<path
   vector-effect="non-scaling-stroke"
   shaper:cutDepth="0.003"
   shaper:pathType="interior"
   class="st1"
   d="m 219.28669,240.03182 c 0,3.05858 2.52665,5.71821 5.71821,5.71821 3.19156,0 5.71821,-2.52665 5.71821,-5.71821 v 0 c 0,-3.05858 -2.52665,-5.71821 -5.71821,-5.71821 -3.19156,0 -5.71821,2.65963 -5.71821,5.71821 z"
   id="path301"
   style="stroke-width:1.32982" />
<path
   vector-effect="non-scaling-stroke"
   shaper:cutDepth="0.003"
   shaper:pathType="interior"
   class="st1"
   d="m 9.1757335,270.21865 c 0,2.65963 2.1277065,4.65435 4.6543565,4.65435 2.526651,0 4.654357,-2.1277 4.654357,-4.65435 0,-2.52665 -2.127706,-4.65436 -4.654357,-4.65436 -2.52665,0 -4.6543565,1.99473 -4.6543565,4.65436 z"
   id="path303"
   style="stroke-width:1.32982" />
<path
   vector-effect="non-scaling-stroke"
   shaper:cutDepth="0.003"
   shaper:pathType="interior"
   class="st1"
   d="m 8.2448622,240.03182 c 0,3.05858 2.5266508,5.71821 5.7182098,5.71821 3.191559,0 5.718209,-2.52665 5.718209,-5.71821 0,-3.19156 -2.52665,-5.71821 -5.718209,-5.71821 -3.191559,0 -5.7182098,2.65963 -5.7182098,5.71821 z"
   id="path305"
   style="stroke-width:1.32982" />
<path
   vector-effect="non-scaling-stroke"
   shaper:cutDepth="0.003"
   shaper:pathType="interior"
   class="st1"
   d="M 290.96378,100.5341 H 275.93686 V 89.230668 h 15.02692 z"
   id="path307"
   style="stroke-width:1.32982" />
<path
   vector-effect="non-scaling-stroke"
   shaper:cutDepth="0.003"
   shaper:pathType="interior"
   class="st1"
   d="m 30.851737,240.03182 c 0,3.05858 2.526651,5.71821 5.71821,5.71821 3.191559,0 5.71821,-2.52665 5.71821,-5.71821 0,-3.19156 -2.526651,-5.71821 -5.71821,-5.71821 -3.191559,0 -5.71821,2.65963 -5.71821,5.71821 z"
   id="path309"
   style="stroke-width:1.32982" />
<path
   vector-effect="non-scaling-stroke"
   shaper:cutDepth="0.003"
   shaper:pathType="interior"
   class="st1"
   d="m 426.60503,89.230668 h 15.02692 V 100.5341 h -15.02692 z"
   id="path311"
   style="stroke-width:1.32982" />
<path
   vector-effect="non-scaling-stroke"
   shaper:cutDepth="0.003"
   shaper:pathType="interior"
   class="st1"
   d="m 9.1757335,454.93012 c 0,2.65963 2.1277065,4.65435 4.6543565,4.65435 2.526651,0 4.654357,-2.1277 4.654357,-4.65435 0,-2.52666 -2.127706,-4.65436 -4.654357,-4.65436 -2.52665,0 -4.6543565,1.99472 -4.6543565,4.65436 z"
   id="path313"
   style="stroke-width:1.32982" />
<path
   vector-effect="non-scaling-stroke"
   shaper:cutDepth="0.003"
   shaper:pathType="interior"
   class="st1"
   d="m 302.26722,407.72164 v -15.02692 h 11.30344 v 15.02692 z"
   id="path315"
   style="stroke-width:1.32982" />
<path
   vector-effect="non-scaling-stroke"
   shaper:cutDepth="0.003"
   shaper:pathType="interior"
   class="st1"
   d="m 8.2448622,485.11694 c 0,3.05858 2.5266508,5.71821 5.7182098,5.71821 3.191559,0 5.718209,-2.52665 5.718209,-5.71821 0,-3.19156 -2.52665,-5.71821 -5.718209,-5.71821 -3.191559,0 -5.7182098,2.52665 -5.7182098,5.71821 z"
   id="path317"
   style="stroke-width:1.32982" />
<path
   vector-effect="non-scaling-stroke"
   shaper:cutDepth="0.003"
   shaper:pathType="interior"
   class="st1"
   d="m 227.79751,270.21865 c 0,2.65963 2.12771,4.65435 4.65436,4.65435 2.52665,0 4.65436,-2.1277 4.65436,-4.65435 0,-2.52665 -2.12771,-4.65436 -4.65436,-4.65436 -2.52665,0 -4.65436,1.99473 -4.65436,4.65436 z"
   id="path319"
   style="stroke-width:1.32982" />
<path
   vector-effect="non-scaling-stroke"
   shaper:cutDepth="0.003"
   shaper:pathType="interior"
   class="st1"
   d="m 313.57066,460.51534 h -11.30344 v -15.02692 h 11.30344 z"
   id="path321"
   style="stroke-width:1.32982" />
<path
   vector-effect="non-scaling-stroke"
   shaper:cutDepth="0.003"
   shaper:pathType="interior"
   class="st1"
   d="m 240.03182,94.948877 c 0,3.058578 2.52665,5.718203 5.71821,5.718203 3.05858,0 5.71821,-2.526644 5.71821,-5.718203 0,-3.058577 -2.52665,-5.718209 -5.71821,-5.718209 -3.19156,0 -5.71821,2.52665 -5.71821,5.718209 z"
   id="path323"
   style="stroke-width:1.32982" />
<path
   vector-effect="non-scaling-stroke"
   shaper:cutDepth="0.003"
   shaper:pathType="interior"
   class="st1"
   d="m 51.59687,94.948877 c 0,3.058578 2.526651,5.718203 5.718209,5.718203 3.058578,0 5.71821,-2.526644 5.71821,-5.718203 0,-3.058577 -2.526651,-5.718209 -5.585228,-5.718209 -3.32454,0 -5.851191,2.52665 -5.851191,5.718209 0,0 0,0 0,0 z"
   id="path325"
   style="stroke-width:1.32982" />
<path
   vector-effect="non-scaling-stroke"
   shaper:cutDepth="0.003"
   shaper:pathType="interior"
   class="st1"
   d="m 466.23355,94.948877 c 0,3.058578 2.52665,5.718203 5.71821,5.718203 3.05858,0 5.71821,-2.526644 5.71821,-5.718203 0,-3.058577 -2.52665,-5.718209 -5.71821,-5.718209 -3.19156,0 -5.71821,2.52665 -5.71821,5.718209 z"
   id="path327"
   style="stroke-width:1.32982" />
<path
   vector-effect="non-scaling-stroke"
   shaper:cutDepth="0.003"
   shaper:pathType="interior"
   class="st1"
   d="m 51.59687,207.98325 c 0,3.05858 2.526651,5.71821 5.718209,5.71821 3.058578,0 5.71821,-2.52665 5.71821,-5.71821 v 0 c 0,-3.05858 -2.526651,-5.71821 -5.585228,-5.71821 -3.32454,0 -5.851191,2.65963 -5.851191,5.71821 0,0 0,0 0,0 z"
   id="path329"
   style="stroke-width:1.32982" />
<path
   vector-effect="non-scaling-stroke"
   shaper:cutDepth="0.003"
   shaper:pathType="interior"
   class="st1"
   d="M 102.39585,100.5341 H 87.368925 V 89.230668 h 15.026925 z"
   id="path331"
   style="stroke-width:1.32982" />
<path
   vector-effect="non-scaling-stroke"
   shaper:cutDepth="0.003"
   shaper:pathType="interior"
   class="st1"
   d="m 240.03182,207.98325 c 0,3.05858 2.52665,5.71821 5.71821,5.71821 3.05858,0 5.71821,-2.52665 5.71821,-5.71821 v 0 c 0,-3.05858 -2.52665,-5.71821 -5.71821,-5.71821 -3.19156,0.13298 -5.71821,2.65963 -5.71821,5.71821 z"
   id="path333"
   style="stroke-width:1.32982" />
</svg>
