<?xml version="1.0" encoding="UTF-8" standalone="no"?>
<svg
   xmlns:shaper="http://www.shapertools.com/namespaces/shaper"
   xmlns:dc="http://purl.org/dc/elements/1.1/"
   xmlns:cc="http://creativecommons.org/ns#"
   xmlns:rdf="http://www.w3.org/1999/02/22-rdf-syntax-ns#"
   xmlns:svg="http://www.w3.org/2000/svg"
   xmlns="http://www.w3.org/2000/svg"
   xmlns:sodipodi="http://sodipodi.sourceforge.net/DTD/sodipodi-0.dtd"
   xmlns:inkscape="http://www.inkscape.org/namespaces/inkscape"
   version="1.1"
   id="Layer_1"
   shaper:fusionaddin="version:1.5.0"
   x="0px"
   y="0px"
   viewBox="0 0 529.13386 637.1547"
   xml:space="preserve"
   sodipodi:docname="bottom-plate-3dut.svg"
   inkscape:version="1.0.2-2 (e86c870879, 2021-01-15)"
   width="140mm"
   height="168.58052mm"><metadata
   id="metadata134"><rdf:RDF><cc:Work
       rdf:about=""><dc:format>image/svg+xml</dc:format><dc:type
         rdf:resource="http://purl.org/dc/dcmitype/StillImage" /><dc:title></dc:title></cc:Work></rdf:RDF></metadata><defs
   id="defs132" /><sodipodi:namedview
   pagecolor="#ffffff"
   bordercolor="#666666"
   borderopacity="1"
   objecttolerance="10"
   gridtolerance="10"
   guidetolerance="10"
   inkscape:pageopacity="0"
   inkscape:pageshadow="2"
   inkscape:window-width="1920"
   inkscape:window-height="1137"
   id="namedview130"
   showgrid="false"
   showguides="true"
   inkscape:guide-bbox="true"
   inkscape:zoom="1.2653661"
   inkscape:cx="68.034564"
   inkscape:cy="346.29964"
   inkscape:window-x="-8"
   inkscape:window-y="-8"
   inkscape:window-maximized="1"
   inkscape:current-layer="Layer_1"
   inkscape:document-rotation="0"
   inkscape:document-units="mm"
   fit-margin-top="0"
   fit-margin-left="0"
   fit-margin-right="0"
   fit-margin-bottom="0"
   units="mm" />
<style
   type="text/css"
   id="style73">
	.st0{fill:none;stroke:#000000;stroke-miterlimit:10;}
	.st1{fill:none;stroke:#000000;}
</style>
<path
   vector-effect="non-scaling-stroke"
   shaper:cutDepth="0.003"
   shaper:pathType="exterior"
   class="st0"
   d="M 520.80501,0.75137001 H 8.3288386 c -4.2540174,0 -7.57746859,4.24674179 -7.57746859,9.68256799 V 626.72078 c 0,5.26595 3.32345119,9.68257 7.57746859,9.68257 H 520.80501 c 4.12108,0 7.57747,-4.24675 7.57747,-9.68257 V 10.433938 c 0,-5.4358262 -3.45639,-9.68256799 -7.57747,-9.68256799 z"
   id="path75"
   style="stroke-width:1.50274" />
<path
   vector-effect="non-scaling-stroke"
   shaper:cutDepth="0.003"
   shaper:pathType="interior"
   class="st1"
   d="m 102.44898,340.6162 v 11.29973 H 87.426976 V 340.6162 Z"
   id="path77"
   style="stroke-width:1.32938" />
<path
   vector-effect="non-scaling-stroke"
   shaper:cutDepth="0.003"
   shaper:pathType="interior"
   class="st1"
   d="m 466.16747,346.1996 c 0,3.05757 2.52583,5.71633 5.71634,5.71633 3.05758,0 5.71634,-2.52582 5.71634,-5.71633 v 0 c 0,-3.05758 -2.52583,-5.71634 -5.71634,-5.71634 -3.19051,0.13294 -5.71634,2.65876 -5.71634,5.71634 z"
   id="path79"
   style="stroke-width:1.32938" />
<path
   vector-effect="non-scaling-stroke"
   shaper:cutDepth="0.003"
   shaper:pathType="interior"
   class="st1"
   d="m 441.70687,351.91593 h -15.022 V 340.6162 h 15.022 z"
   id="path81"
   style="stroke-width:1.32938" />
<path
   vector-effect="non-scaling-stroke"
   shaper:cutDepth="0.003"
   shaper:pathType="interior"
   class="st1"
   d="M 275.80019,351.91593 V 340.6162 h 15.022 v 11.29973 z"
   id="path83"
   style="stroke-width:1.32938" />
<path
   vector-effect="non-scaling-stroke"
   shaper:cutDepth="0.003"
   shaper:pathType="interior"
   class="st1"
   d="m 302.25486,378.23766 c 0,3.05758 2.52583,5.71634 5.71634,5.71634 3.05758,0 5.71634,-2.52582 5.71634,-5.71634 v 0 c 0,-3.05757 -2.52583,-5.71633 -5.71634,-5.71633 -3.19051,0 -5.71634,2.65876 -5.71634,5.71633 z"
   id="path85"
   style="stroke-width:1.32938" />
<path
   vector-effect="non-scaling-stroke"
   shaper:cutDepth="0.003"
   shaper:pathType="interior"
   class="st1"
   d="m 219.30152,623.24248 c 0,3.05758 2.52583,5.71634 5.71634,5.71634 3.19051,0 5.71634,-2.52583 5.71634,-5.71634 0,-3.19051 -2.52583,-5.71633 -5.71634,-5.71633 -3.19051,0 -5.71634,2.52582 -5.71634,5.71633 z"
   id="path87"
   style="stroke-width:1.32938" />
<path
   vector-effect="non-scaling-stroke"
   shaper:cutDepth="0.003"
   shaper:pathType="interior"
   class="st1"
   d="m 30.928307,623.24248 c 0,3.05758 2.525823,5.71634 5.716336,5.71634 3.190513,0 5.716336,-2.52583 5.716336,-5.71634 0,-3.19051 -2.525823,-5.71633 -5.716336,-5.71633 -3.190513,0 -5.716336,2.52582 -5.716336,5.71633 z"
   id="path89"
   style="stroke-width:1.32938" />
<path
   vector-effect="non-scaling-stroke"
   shaper:cutDepth="0.003"
   shaper:pathType="interior"
   class="st1"
   d="m 302.25486,623.24248 c 0,3.05758 2.52583,5.71634 5.71634,5.71634 3.05758,0 5.71634,-2.52583 5.71634,-5.71634 0,-3.19051 -2.52583,-5.71633 -5.71634,-5.71633 -3.19051,0 -5.71634,2.52582 -5.71634,5.71633 z"
   id="path91"
   style="stroke-width:1.32938" />
<path
   vector-effect="non-scaling-stroke"
   shaper:cutDepth="0.003"
   shaper:pathType="interior"
   class="st1"
   d="m 227.80956,593.06555 c 0,2.65876 2.12701,4.65283 4.65283,4.65283 2.52582,0 4.65283,-2.12701 4.65283,-4.65283 0,-2.52583 -2.12701,-4.65284 -4.65283,-4.65284 -2.52582,0 -4.65283,1.99407 -4.65283,4.65284 z"
   id="path93"
   style="stroke-width:1.32938" />
<path
   vector-effect="non-scaling-stroke"
   shaper:cutDepth="0.003"
   shaper:pathType="interior"
   class="st1"
   d="m 219.30152,378.23766 c 0,3.05758 2.52583,5.71634 5.71634,5.71634 3.19051,0 5.71634,-2.52582 5.71634,-5.71634 v 0 c 0,-3.05757 -2.52583,-5.71633 -5.71634,-5.71633 -3.19051,0 -5.71634,2.65876 -5.71634,5.71633 z"
   id="path95"
   style="stroke-width:1.32938" />
<path
   vector-effect="non-scaling-stroke"
   shaper:cutDepth="0.003"
   shaper:pathType="interior"
   class="st1"
   d="m 9.2594049,408.4146 c 0,2.65876 2.1270091,4.65283 4.6528321,4.65283 2.525823,0 4.652831,-2.12701 4.652831,-4.65283 0,-2.52582 -2.127008,-4.65283 -4.652831,-4.65283 -2.525823,0 -4.6528321,1.99407 -4.6528321,4.65283 z"
   id="path97"
   style="stroke-width:1.32938" />
<path
   vector-effect="non-scaling-stroke"
   shaper:cutDepth="0.003"
   shaper:pathType="interior"
   class="st1"
   d="m 8.3288386,378.23766 c 0,3.05758 2.5258234,5.71634 5.7163364,5.71634 3.190513,0 5.716336,-2.52582 5.716336,-5.71634 0,-3.19051 -2.525823,-5.71633 -5.716336,-5.71633 -3.190513,0 -5.7163364,2.65876 -5.7163364,5.71633 z"
   id="path99"
   style="stroke-width:1.32938" />
<path
   vector-effect="non-scaling-stroke"
   shaper:cutDepth="0.003"
   shaper:pathType="interior"
   class="st1"
   d="m 290.95513,238.78566 h -15.022 v -11.29974 h 15.022 z"
   id="path101"
   style="stroke-width:1.32938" />
<path
   vector-effect="non-scaling-stroke"
   shaper:cutDepth="0.003"
   shaper:pathType="interior"
   class="st1"
   d="m 30.928307,378.23766 c 0,3.05758 2.525823,5.71634 5.716336,5.71634 3.190513,0 5.716336,-2.52582 5.716336,-5.71634 0,-3.19051 -2.525823,-5.71633 -5.716336,-5.71633 -3.190513,0 -5.716336,2.65876 -5.716336,5.71633 z"
   id="path103"
   style="stroke-width:1.32938" />
<path
   vector-effect="non-scaling-stroke"
   shaper:cutDepth="0.003"
   shaper:pathType="interior"
   class="st1"
   d="m 426.55194,227.48592 h 15.022 v 11.29974 h -15.022 z"
   id="path105"
   style="stroke-width:1.32938" />
<path
   vector-effect="non-scaling-stroke"
   shaper:cutDepth="0.003"
   shaper:pathType="interior"
   class="st1"
   d="m 9.2594049,593.06555 c 0,2.65876 2.1270091,4.65283 4.6528321,4.65283 2.525823,0 4.652831,-2.12701 4.652831,-4.65283 0,-2.52583 -2.127008,-4.65284 -4.652831,-4.65284 -2.525823,0 -4.6528321,1.99407 -4.6528321,4.65284 z"
   id="path107"
   style="stroke-width:1.32938" />
<path
   vector-effect="non-scaling-stroke"
   shaper:cutDepth="0.003"
   shaper:pathType="interior"
   class="st1"
   d="m 302.25486,545.87254 v -15.022 h 11.29974 v 15.022 z"
   id="path109"
   style="stroke-width:1.32938" />
<path
   vector-effect="non-scaling-stroke"
   shaper:cutDepth="0.003"
   shaper:pathType="interior"
   class="st1"
   d="m 8.3288386,623.24248 c 0,3.05758 2.5258234,5.71634 5.7163364,5.71634 3.190513,0 5.716336,-2.52583 5.716336,-5.71634 0,-3.19051 -2.525823,-5.71633 -5.716336,-5.71633 -3.190513,0 -5.7163364,2.52582 -5.7163364,5.71633 z"
   id="path111"
   style="stroke-width:1.32938" />
<path
   vector-effect="non-scaling-stroke"
   shaper:cutDepth="0.003"
   shaper:pathType="interior"
   class="st1"
   d="m 227.80956,408.4146 c 0,2.65876 2.12701,4.65283 4.65283,4.65283 2.52582,0 4.65283,-2.12701 4.65283,-4.65283 0,-2.52582 -2.12701,-4.65283 -4.65283,-4.65283 -2.52582,0 -4.65283,1.99407 -4.65283,4.65283 z"
   id="path113"
   style="stroke-width:1.32938" />
<path
   vector-effect="non-scaling-stroke"
   shaper:cutDepth="0.003"
   shaper:pathType="interior"
   class="st1"
   d="m 313.5546,598.64894 h -11.29974 v -15.022 h 11.29974 z"
   id="path115"
   style="stroke-width:1.32938" />
<path
   vector-effect="non-scaling-stroke"
   shaper:cutDepth="0.003"
   shaper:pathType="interior"
   class="st1"
   d="m 240.03986,233.20226 c 0,3.05757 2.52582,5.71633 5.71634,5.71633 3.05757,0 5.71633,-2.52582 5.71633,-5.71633 0,-3.05758 -2.52582,-5.71634 -5.71633,-5.71634 -3.19052,0 -5.71634,2.52582 -5.71634,5.71634 z"
   id="path117"
   style="stroke-width:1.32938" />
<path
   vector-effect="non-scaling-stroke"
   shaper:cutDepth="0.003"
   shaper:pathType="interior"
   class="st1"
   d="m 51.666642,233.20226 c 0,3.05757 2.525823,5.71633 5.716336,5.71633 3.057575,0 5.716336,-2.52582 5.716336,-5.71633 0,-3.05758 -2.525823,-5.71634 -5.583398,-5.71634 -3.323451,0 -5.849274,2.52582 -5.849274,5.71634 0,0 0,0 0,0 z"
   id="path119"
   style="stroke-width:1.32938" />
<path
   vector-effect="non-scaling-stroke"
   shaper:cutDepth="0.003"
   shaper:pathType="interior"
   class="st1"
   d="m 466.16747,233.20226 c 0,3.05757 2.52583,5.71633 5.71634,5.71633 3.05758,0 5.71634,-2.52582 5.71634,-5.71633 0,-3.05758 -2.52583,-5.71634 -5.71634,-5.71634 -3.19051,0 -5.71634,2.52582 -5.71634,5.71634 z"
   id="path121"
   style="stroke-width:1.32938" />
<path
   vector-effect="non-scaling-stroke"
   shaper:cutDepth="0.003"
   shaper:pathType="interior"
   class="st1"
   d="m 51.666642,346.1996 c 0,3.05757 2.525823,5.71633 5.716336,5.71633 3.057575,0 5.716336,-2.52582 5.716336,-5.71633 v 0 c 0,-3.05758 -2.525823,-5.71634 -5.583398,-5.71634 -3.323451,0 -5.849274,2.65876 -5.849274,5.71634 0,0 0,0 0,0 z"
   id="path123"
   style="stroke-width:1.32938" />
<path
   vector-effect="non-scaling-stroke"
   shaper:cutDepth="0.003"
   shaper:pathType="interior"
   class="st1"
   d="M 102.44898,238.78566 H 87.426976 v -11.29974 h 15.022004 z"
   id="path125"
   style="stroke-width:1.32938" />
<path
   vector-effect="non-scaling-stroke"
   shaper:cutDepth="0.003"
   shaper:pathType="interior"
   class="st1"
   d="m 240.03986,346.1996 c 0,3.05757 2.52582,5.71633 5.71634,5.71633 3.05757,0 5.71633,-2.52582 5.71633,-5.71633 v 0 c 0,-3.05758 -2.52582,-5.71634 -5.71633,-5.71634 -3.19052,0.13294 -5.71634,2.65876 -5.71634,5.71634 z"
   id="path127"
   style="stroke-width:1.32938" />
<path
   vector-effect="non-scaling-stroke"
   shaper:cutDepth="0.003"
   shaper:pathType="interior"
   class="st1"
   d="m 290.95513,125.15103 h -15.022 V 113.8513 h 15.022 z"
   id="path101-5"
   style="fill:none;stroke:#000000;stroke-width:1.32938" /><path
   vector-effect="non-scaling-stroke"
   shaper:cutDepth="0.003"
   shaper:pathType="interior"
   class="st1"
   d="m 426.55194,113.8513 h 15.022 v 11.29973 h -15.022 z"
   id="path105-4"
   style="fill:none;stroke:#000000;stroke-width:1.32938" /><path
   vector-effect="non-scaling-stroke"
   shaper:cutDepth="0.003"
   shaper:pathType="interior"
   class="st1"
   d="m 240.03986,119.56763 c 0,3.05758 2.52582,5.71634 5.71634,5.71634 3.05757,0 5.71633,-2.52582 5.71633,-5.71634 0,-3.05757 -2.52582,-5.71633 -5.71633,-5.71633 -3.19052,0 -5.71634,2.52582 -5.71634,5.71633 z"
   id="path117-5"
   style="fill:none;stroke:#000000;stroke-width:1.32938" /><path
   vector-effect="non-scaling-stroke"
   shaper:cutDepth="0.003"
   shaper:pathType="interior"
   class="st1"
   d="m 51.66664,119.56763 c 0,3.05758 2.525823,5.71634 5.716336,5.71634 3.057575,0 5.716336,-2.52582 5.716336,-5.71634 0,-3.05757 -2.525823,-5.71633 -5.583398,-5.71633 -3.323451,0 -5.849274,2.52582 -5.849274,5.71633 0,0 0,0 0,0 z"
   id="path119-0"
   style="fill:none;stroke:#000000;stroke-width:1.32938" /><path
   vector-effect="non-scaling-stroke"
   shaper:cutDepth="0.003"
   shaper:pathType="interior"
   class="st1"
   d="m 466.16747,119.56763 c 0,3.05758 2.52583,5.71634 5.71634,5.71634 3.05758,0 5.71634,-2.52582 5.71634,-5.71634 0,-3.05757 -2.52583,-5.71633 -5.71634,-5.71633 -3.19051,0 -5.71634,2.52582 -5.71634,5.71633 z"
   id="path121-0"
   style="fill:none;stroke:#000000;stroke-width:1.32938" /><path
   vector-effect="non-scaling-stroke"
   shaper:cutDepth="0.003"
   shaper:pathType="interior"
   class="st1"
   d="M 102.44898,125.15103 H 87.426974 V 113.8513 h 15.022006 z"
   id="path125-7"
   style="fill:none;stroke:#000000;stroke-width:1.32938" /></svg>
