<?xml version="1.0" encoding="utf-8"?>
<!-- Generator: Adobe Illustrator 21.1.0, SVG Export Plug-In . SVG Version: 6.00 Build 0)  -->
<svg version="1.1" id="Layer_1" shaper:fusionaddin="version:1.5.0" xmlns:shaper="http://www.shapertools.com/namespaces/shaper"
	 xmlns="http://www.w3.org/2000/svg" xmlns:xlink="http://www.w3.org/1999/xlink" x="0px" y="0px" viewBox="0 0 396.9 374.2"
	 style="enable-background:new 0 0 396.9 374.2;" xml:space="preserve">
<style type="text/css">
	.st0{fill:none;stroke:#000000;stroke-miterlimit:10;}
	.st1{fill:none;stroke:#000000;}
</style>
<path vector-effect="non-scaling-stroke" shaper:cutDepth="0.003" shaper:pathType="exterior" class="st0" d="M391.2,0H5.7
	C2.5,0,0,2.5,0,5.7v362.8c0,3.1,2.5,5.7,5.7,5.7h385.5c3.1,0,5.7-2.5,5.7-5.7V5.7C396.9,2.5,394.3,0,391.2,0z"/>
<path vector-effect="non-scaling-stroke" shaper:cutDepth="0.003" shaper:pathType="interior" class="st1" d="M76.5,151.7v8.5H65.2
	v-8.5H76.5z"/>
<path vector-effect="non-scaling-stroke" shaper:cutDepth="0.003" shaper:pathType="interior" class="st1" d="M350.1,155.9
	c0,2.3,1.9,4.3,4.3,4.3c2.3,0,4.3-1.9,4.3-4.3l0,0c0-2.3-1.9-4.3-4.3-4.3C352,151.7,350.1,153.6,350.1,155.9z"/>
<path vector-effect="non-scaling-stroke" shaper:cutDepth="0.003" shaper:pathType="interior" class="st1" d="M331.7,160.2h-11.3
	v-8.5h11.3V160.2z"/>
<path vector-effect="non-scaling-stroke" shaper:cutDepth="0.003" shaper:pathType="interior" class="st1" d="M206.9,160.2v-8.5
	h11.3v8.5H206.9z"/>
<path vector-effect="non-scaling-stroke" shaper:cutDepth="0.003" shaper:pathType="interior" class="st1" d="M226.8,180
	c0,2.3,1.9,4.3,4.3,4.3c2.3,0,4.3-1.9,4.3-4.3l0,0c0-2.3-1.9-4.3-4.3-4.3C228.7,175.7,226.8,177.7,226.8,180z"/>
<path vector-effect="non-scaling-stroke" shaper:cutDepth="0.003" shaper:pathType="interior" class="st1" d="M164.4,364.3
	c0,2.3,1.9,4.3,4.3,4.3s4.3-1.9,4.3-4.3s-1.9-4.3-4.3-4.3S164.4,361.9,164.4,364.3z"/>
<path vector-effect="non-scaling-stroke" shaper:cutDepth="0.003" shaper:pathType="interior" class="st1" d="M22.7,364.3
	c0,2.3,1.9,4.3,4.3,4.3s4.3-1.9,4.3-4.3s-1.9-4.3-4.3-4.3S22.7,361.9,22.7,364.3L22.7,364.3z"/>
<path vector-effect="non-scaling-stroke" shaper:cutDepth="0.003" shaper:pathType="interior" class="st1" d="M226.8,364.3
	c0,2.3,1.9,4.3,4.3,4.3c2.3,0,4.3-1.9,4.3-4.3s-1.9-4.3-4.3-4.3C228.7,360,226.8,361.9,226.8,364.3z"/>
<path vector-effect="non-scaling-stroke" shaper:cutDepth="0.003" shaper:pathType="interior" class="st1" d="M170.8,341.6
	c0,2,1.6,3.5,3.5,3.5s3.5-1.6,3.5-3.5s-1.6-3.5-3.5-3.5S170.8,339.6,170.8,341.6z"/>
<path vector-effect="non-scaling-stroke" shaper:cutDepth="0.003" shaper:pathType="interior" class="st1" d="M164.4,180
	c0,2.3,1.9,4.3,4.3,4.3s4.3-1.9,4.3-4.3l0,0c0-2.3-1.9-4.3-4.3-4.3S164.4,177.7,164.4,180z"/>
<path vector-effect="non-scaling-stroke" shaper:cutDepth="0.003" shaper:pathType="interior" class="st1" d="M6.4,202.7
	c0,2,1.6,3.5,3.5,3.5s3.5-1.6,3.5-3.5s-1.6-3.5-3.5-3.5S6.4,200.7,6.4,202.7z"/>
<path vector-effect="non-scaling-stroke" shaper:cutDepth="0.003" shaper:pathType="interior" class="st1" d="M5.7,180
	c0,2.3,1.9,4.3,4.3,4.3s4.3-1.9,4.3-4.3s-1.9-4.3-4.3-4.3S5.7,177.7,5.7,180z"/>
<path vector-effect="non-scaling-stroke" shaper:cutDepth="0.003" shaper:pathType="interior" class="st1" d="M218.3,75.1h-11.3
	v-8.5h11.3V75.1z"/>
<path vector-effect="non-scaling-stroke" shaper:cutDepth="0.003" shaper:pathType="interior" class="st1" d="M22.7,180
	c0,2.3,1.9,4.3,4.3,4.3s4.3-1.9,4.3-4.3s-1.9-4.3-4.3-4.3S22.7,177.7,22.7,180z"/>
<path vector-effect="non-scaling-stroke" shaper:cutDepth="0.003" shaper:pathType="interior" class="st1" d="M320.3,66.6h11.3v8.5
	h-11.3V66.6z"/>
<path vector-effect="non-scaling-stroke" shaper:cutDepth="0.003" shaper:pathType="interior" class="st1" d="M6.4,341.6
	c0,2,1.6,3.5,3.5,3.5s3.5-1.6,3.5-3.5s-1.6-3.5-3.5-3.5S6.4,339.6,6.4,341.6z"/>
<path vector-effect="non-scaling-stroke" shaper:cutDepth="0.003" shaper:pathType="interior" class="st1" d="M226.8,306.1v-11.3
	h8.5v11.3H226.8z"/>
<path vector-effect="non-scaling-stroke" shaper:cutDepth="0.003" shaper:pathType="interior" class="st1" d="M5.7,364.3
	c0,2.3,1.9,4.3,4.3,4.3s4.3-1.9,4.3-4.3s-1.9-4.3-4.3-4.3S5.7,361.9,5.7,364.3L5.7,364.3z"/>
<path vector-effect="non-scaling-stroke" shaper:cutDepth="0.003" shaper:pathType="interior" class="st1" d="M170.8,202.7
	c0,2,1.6,3.5,3.5,3.5s3.5-1.6,3.5-3.5s-1.6-3.5-3.5-3.5S170.8,200.7,170.8,202.7z"/>
<path vector-effect="non-scaling-stroke" shaper:cutDepth="0.003" shaper:pathType="interior" class="st1" d="M235.3,345.8h-8.5
	v-11.3h8.5V345.8z"/>
<path vector-effect="non-scaling-stroke" shaper:cutDepth="0.003" shaper:pathType="interior" class="st1" d="M180,70.9
	c0,2.3,1.9,4.3,4.3,4.3c2.3,0,4.3-1.9,4.3-4.3c0-2.3-1.9-4.3-4.3-4.3C181.9,66.6,180,68.5,180,70.9z"/>
<path vector-effect="non-scaling-stroke" shaper:cutDepth="0.003" shaper:pathType="interior" class="st1" d="M38.3,70.9
	c0,2.3,1.9,4.3,4.3,4.3c2.3,0,4.3-1.9,4.3-4.3c0-2.3-1.9-4.3-4.2-4.3C40.2,66.6,38.3,68.5,38.3,70.9C38.3,70.9,38.3,70.9,38.3,70.9z
	"/>
<path vector-effect="non-scaling-stroke" shaper:cutDepth="0.003" shaper:pathType="interior" class="st1" d="M350.1,70.9
	c0,2.3,1.9,4.3,4.3,4.3c2.3,0,4.3-1.9,4.3-4.3c0-2.3-1.9-4.3-4.3-4.3C352,66.6,350.1,68.5,350.1,70.9z"/>
<path vector-effect="non-scaling-stroke" shaper:cutDepth="0.003" shaper:pathType="interior" class="st1" d="M38.3,155.9
	c0,2.3,1.9,4.3,4.3,4.3c2.3,0,4.3-1.9,4.3-4.3l0,0c0-2.3-1.9-4.3-4.2-4.3C40.2,151.6,38.3,153.6,38.3,155.9
	C38.3,155.9,38.3,155.9,38.3,155.9z"/>
<path vector-effect="non-scaling-stroke" shaper:cutDepth="0.003" shaper:pathType="interior" class="st1" d="M76.5,75.1H65.2v-8.5
	h11.3V75.1z"/>
<path vector-effect="non-scaling-stroke" shaper:cutDepth="0.003" shaper:pathType="interior" class="st1" d="M180,155.9
	c0,2.3,1.9,4.3,4.3,4.3c2.3,0,4.3-1.9,4.3-4.3l0,0c0-2.3-1.9-4.3-4.3-4.3C181.9,151.7,180,153.6,180,155.9z"/>
</svg>
