<?xml version="1.0" encoding="utf-8"?>
<!-- Generator: Adobe Illustrator 21.1.0, SVG Export Plug-In . SVG Version: 6.00 Build 0)  -->
<svg version="1.1" id="Layer_1" shaper:fusionaddin="version:1.5.0" xmlns:shaper="http://www.shapertools.com/namespaces/shaper"
	 xmlns="http://www.w3.org/2000/svg" xmlns:xlink="http://www.w3.org/1999/xlink" x="0px" y="0px" viewBox="0 0 204.1 178.6"
	 style="enable-background:new 0 0 204.1 178.6;" xml:space="preserve">
<style type="text/css">
	.st0{fill:none;stroke:#000000;stroke-miterlimit:10;}
	.st1{fill:none;stroke:#000000;}
</style>
<path vector-effect="non-scaling-stroke" shaper:cutDepth="0.003" shaper:pathType="exterior" class="st0" d="M198.4,0H5.7
	C2.5,0,0,2.5,0,5.7c0,0,0,0,0,0v167.2c0,3.1,2.5,5.7,5.7,5.7h192.8c3.1,0,5.7-2.5,5.7-5.7V5.7C204.1,2.5,201.6,0,198.4,0L198.4,0z"
	/>
<path vector-effect="non-scaling-stroke" shaper:cutDepth="0.003" shaper:pathType="interior" class="st1" d="M5.7,168.7
	c0,2.3,1.9,4.3,4.3,4.3s4.3-1.9,4.3-4.3s-1.9-4.3-4.3-4.3S5.7,166.3,5.7,168.7L5.7,168.7z"/>
<path vector-effect="non-scaling-stroke" shaper:cutDepth="0.003" shaper:pathType="interior" class="st1" d="M5.7,9.9
	c0,2.3,1.9,4.3,4.3,4.3s4.3-1.9,4.3-4.3s-1.9-4.3-4.3-4.3S5.7,7.6,5.7,9.9z"/>
<path vector-effect="non-scaling-stroke" shaper:cutDepth="0.003" shaper:pathType="interior" class="st1" d="M189.9,9.9
	c0,2.3,1.9,4.3,4.3,4.3s4.3-1.9,4.3-4.3l0,0c0-2.3-1.9-4.3-4.3-4.3S189.9,7.6,189.9,9.9z"/>
<path vector-effect="non-scaling-stroke" shaper:cutDepth="0.003" shaper:pathType="interior" class="st1" d="M189.9,168.7
	c0,2.3,1.9,4.3,4.3,4.3s4.3-1.9,4.3-4.3s-1.9-4.3-4.3-4.3S189.9,166.3,189.9,168.7z"/>
<path vector-effect="non-scaling-stroke" shaper:cutDepth="0.003" shaper:pathType="interior" class="st1" d="M144.6,55.3
	c0,2.3,1.9,4.3,4.3,4.3s4.3-1.9,4.3-4.3s-1.9-4.3-4.3-4.3S144.6,52.9,144.6,55.3z"/>
<path vector-effect="non-scaling-stroke" shaper:cutDepth="0.003" shaper:pathType="interior" class="st1" d="M51,55.3
	c0,2.3,1.9,4.3,4.3,4.3c2.3,0,4.3-1.9,4.3-4.3c0-2.3-1.9-4.3-4.2-4.3C52.9,51,51,52.9,51,55.3C51,55.3,51,55.3,51,55.3z"/>
<path vector-effect="non-scaling-stroke" shaper:cutDepth="0.003" shaper:pathType="interior" class="st1" d="M51,102
	c0,28.2,22.8,51,51,51s51-22.8,51-51c0,0,0,0,0,0c0-28.2-22.8-51-51-51S51,73.9,51,102z"/>
<path vector-effect="non-scaling-stroke" shaper:cutDepth="0.003" shaper:pathType="interior" class="st1" d="M51,148.8
	c0,2.3,1.9,4.3,4.3,4.3c2.3,0,4.3-1.9,4.3-4.3l0,0c0-2.3-1.9-4.3-4.2-4.3C52.9,144.6,51,146.5,51,148.8C51,148.8,51,148.8,51,148.8z
	"/>
<path vector-effect="non-scaling-stroke" shaper:cutDepth="0.003" shaper:pathType="interior" class="st1" d="M144.6,148.8
	c0,2.3,1.9,4.3,4.3,4.3s4.3-1.9,4.3-4.3l0,0c0-2.3-1.9-4.3-4.3-4.3S144.6,146.5,144.6,148.8z"/>
</svg>
