<?xml version="1.0" encoding="utf-8"?>
<!-- Generator: Adobe Illustrator 21.1.0, SVG Export Plug-In . SVG Version: 6.00 Build 0)  -->
<svg version="1.1" id="Layer_1" shaper:fusionaddin="version:1.5.0" xmlns:shaper="http://www.shapertools.com/namespaces/shaper"
	 xmlns="http://www.w3.org/2000/svg" xmlns:xlink="http://www.w3.org/1999/xlink" x="0px" y="0px" viewBox="0 0 240.9 204.1"
	 style="enable-background:new 0 0 240.9 204.1;" xml:space="preserve">
<style type="text/css">
	.st0{fill:none;stroke:#000000;stroke-miterlimit:10;}
	.st1{fill:none;stroke:#000000;}
</style>
<path vector-effect="non-scaling-stroke" shaper:cutDepth="0.003" shaper:pathType="exterior" class="st0" d="M240.9,5.7
	c0-3.1-2.5-5.7-5.7-5.7H5.7C2.5,0,0,2.5,0,5.7v192.8c0,3.1,2.5,5.7,5.7,5.7h229.6c3.1,0,5.7-2.5,5.7-5.7V5.7z"/>
<path vector-effect="non-scaling-stroke" shaper:cutDepth="0.003" shaper:pathType="interior" class="st1" d="M235.3,164.4v11.3
	h-8.5v-11.3H235.3z"/>
<path vector-effect="non-scaling-stroke" shaper:cutDepth="0.003" shaper:pathType="interior" class="st1" d="M5,194.2
	c0,2.7,2.2,5,5,5c2.7,0,5-2.2,5-5c0,0,0,0,0,0c0-2.7-2.2-5-5-5S5,191.4,5,194.2z"/>
<path vector-effect="non-scaling-stroke" shaper:cutDepth="0.003" shaper:pathType="interior" class="st1" d="M235.3,124.7v11.3
	h-8.5v-11.3H235.3z"/>
<path vector-effect="non-scaling-stroke" shaper:cutDepth="0.003" shaper:pathType="interior" class="st1" d="M5,9.9
	c0,2.7,2.2,5,5,5c2.7,0,5-2.2,5-5c0,0,0,0,0,0c0-2.7-2.2-5-5-5S5,7.2,5,9.9z"/>
<path vector-effect="non-scaling-stroke" shaper:cutDepth="0.003" shaper:pathType="interior" class="st1" d="M5.7,171.5
	c0,2.3,1.9,4.3,4.3,4.3s4.3-1.9,4.3-4.3s-1.9-4.3-4.3-4.3S5.7,169.1,5.7,171.5z"/>
<path vector-effect="non-scaling-stroke" shaper:cutDepth="0.003" shaper:pathType="interior" class="st1" d="M5.7,32.6
	c0,2.3,1.9,4.3,4.3,4.3s4.3-1.9,4.3-4.3s-1.9-4.3-4.3-4.3S5.7,30.3,5.7,32.6L5.7,32.6z"/>
<path vector-effect="non-scaling-stroke" shaper:cutDepth="0.003" shaper:pathType="interior" class="st1" d="M170.1,32.6
	c0,2.3,1.9,4.3,4.3,4.3s4.3-1.9,4.3-4.3s-1.9-4.3-4.3-4.3S170.1,30.3,170.1,32.6z"/>
<path vector-effect="non-scaling-stroke" shaper:cutDepth="0.003" shaper:pathType="interior" class="st1" d="M170.1,171.5
	c0,2.3,1.9,4.3,4.3,4.3s4.3-1.9,4.3-4.3l0,0c0-2.3-1.9-4.3-4.3-4.3S170.1,169.1,170.1,171.5z"/>
<path vector-effect="non-scaling-stroke" shaper:cutDepth="0.003" shaper:pathType="interior" class="st1" d="M163.7,194.2
	c0,2.7,2.2,5,5,5c2.7,0,5-2.2,5-5c0,0,0,0,0,0c0-2.7-2.2-5-5-5C165.9,189.2,163.7,191.4,163.7,194.2
	C163.7,194.2,163.7,194.2,163.7,194.2z"/>
<path vector-effect="non-scaling-stroke" shaper:cutDepth="0.003" shaper:pathType="interior" class="st1" d="M22,194.2
	c0,2.7,2.2,5,5,5c2.7,0,5-2.2,5-5c0,0,0,0,0,0c0-2.7-2.2-5-5-5S22,191.4,22,194.2z"/>
<path vector-effect="non-scaling-stroke" shaper:cutDepth="0.003" shaper:pathType="interior" class="st1" d="M22,9.9
	c0,2.7,2.2,5,5,5c2.7,0,5-2.2,5-5c0,0,0,0,0,0c0-2.7-2.2-5-5-5S22,7.2,22,9.9z"/>
<path vector-effect="non-scaling-stroke" shaper:cutDepth="0.003" shaper:pathType="interior" class="st1" d="M163.7,9.9
	c0,2.7,2.2,5,5,5c2.7,0,5-2.2,5-5c0,0,0,0,0,0c0-2.7-2.2-5-5-5S163.7,7.2,163.7,9.9C163.7,9.9,163.7,9.9,163.7,9.9z"/>
<path vector-effect="non-scaling-stroke" shaper:cutDepth="0.003" shaper:pathType="interior" class="st1" d="M226.1,9.9
	c0,2.7,2.2,5,5,5c2.7,0,5-2.2,5-5c0,0,0,0,0,0c0-2.7-2.2-5-5-5S226.1,7.2,226.1,9.9C226.1,9.9,226.1,9.9,226.1,9.9z"/>
<path vector-effect="non-scaling-stroke" shaper:cutDepth="0.003" shaper:pathType="interior" class="st1" d="M226.1,194.2
	c0,2.7,2.2,5,5,5c2.7,0,5-2.2,5-5c0,0,0,0,0,0c0-2.7-2.2-5-5-5C228.3,189.2,226.1,191.4,226.1,194.2
	C226.1,194.2,226.1,194.2,226.1,194.2z"/>
</svg>
