<?xml version="1.0" encoding="utf-8"?>
<!-- Generator: Adobe Illustrator 21.1.0, SVG Export Plug-In . SVG Version: 6.00 Build 0)  -->
<svg version="1.1" id="Layer_1" shaper:fusionaddin="version:1.5.0" xmlns:shaper="http://www.shapertools.com/namespaces/shaper"
	 xmlns="http://www.w3.org/2000/svg" xmlns:xlink="http://www.w3.org/1999/xlink" x="0px" y="0px" viewBox="0 0 396.9 220.4"
	 style="enable-background:new 0 0 396.9 220.4;" xml:space="preserve">
<style type="text/css">
	.st0{fill:none;stroke:#000000;stroke-miterlimit:10;}
	.st1{fill:none;stroke:#000000;}
</style>
<path vector-effect="non-scaling-stroke" shaper:cutDepth="0.003" shaper:pathType="exterior" class="st0" d="M36.9,156.6H14.2
	C6.3,156.6,0,163,0,170.8v35.4c0,7.8,6.3,14.2,14.2,14.2h368.5c7.8,0,14.2-6.3,14.2-14.2V7.8h-39v8.5h3.9v7.1h-3.9v12.8h-8.5V23.4
	h-3.9v-7.1h3.9V7.8h-17.7V0h-11.3v7.8h-102V0h-11.3v7.8h-17.7v8.5h3.9v7.1h-3.9v12.8h-8.5V23.4h-3.9v-7.1h3.9V7.8H76.5V0H65.2v7.8
	H47.5v8.5h3.9v7.1h-3.9v12.8H39V23.4h-3.9v-7.1H39V7.8H0v92.1c0,7.8,6.3,14.2,14.2,14.2h22.7c3.1,0,5.7,2.5,5.7,5.7l0,0v31.2
	C42.5,154.1,40,156.6,36.9,156.6L36.9,156.6z"/>
<path vector-effect="non-scaling-stroke" shaper:cutDepth="0.003" shaper:pathType="interior" class="st1" d="M74.4,75.8
	c0,2.7,2.2,5,5,5c2.7,0,5-2.2,5-5c0,0,0,0,0,0c0-2.7-2.2-5-5-5C76.6,70.9,74.4,73.1,74.4,75.8C74.4,75.8,74.4,75.8,74.4,75.8z"/>
<path vector-effect="non-scaling-stroke" shaper:cutDepth="0.003" shaper:pathType="interior" class="st1" d="M362.8,82.9
	c3.1,0,5.7,2.5,5.7,5.7v99.2c0,3.1-2.5,5.7-5.7,5.7H161.6c-3.1,0-5.7-2.5-5.7-5.7V88.6c0-3.1,2.5-5.7,5.7-5.7H362.8z"/>
<path vector-effect="non-scaling-stroke" shaper:cutDepth="0.003" shaper:pathType="interior" class="st1" d="M326.7,68.7
	c0,2,1.6,3.5,3.5,3.5s3.5-1.6,3.5-3.5c0-2-1.6-3.5-3.5-3.5S326.7,66.8,326.7,68.7z"/>
<path vector-effect="non-scaling-stroke" shaper:cutDepth="0.003" shaper:pathType="interior" class="st1" d="M162.3,68.7
	c0,2,1.6,3.5,3.5,3.5c2,0,3.5-1.6,3.5-3.5c0-2-1.6-3.5-3.5-3.5C163.9,65.2,162.3,66.8,162.3,68.7z"/>
<path vector-effect="non-scaling-stroke" shaper:cutDepth="0.003" shaper:pathType="interior" class="st1" d="M162.3,207.6
	c0,2,1.6,3.5,3.5,3.5c2,0,3.5-1.6,3.5-3.5s-1.6-3.5-3.5-3.5C163.9,204.1,162.3,205.7,162.3,207.6z"/>
<path vector-effect="non-scaling-stroke" shaper:cutDepth="0.003" shaper:pathType="interior" class="st1" d="M326.7,207.6
	c0,2,1.6,3.5,3.5,3.5s3.5-1.6,3.5-3.5s-1.6-3.5-3.5-3.5S326.7,205.7,326.7,207.6z"/>
</svg>
